<mxfile host="app.diagrams.net" agent="Mozilla/5.0 (Windows NT 10.0; Win64; x64) AppleWebKit/537.36 (KHTML, like Gecko) Chrome/133.0.0.0 Safari/537.36" version="26.0.16" pages="2">
  <diagram id="C5RBs43oDa-KdzZeNtuy" name="Page-1">
    <mxGraphModel dx="1434" dy="738" grid="1" gridSize="10" guides="1" tooltips="1" connect="1" arrows="1" fold="1" page="1" pageScale="1" pageWidth="827" pageHeight="1169" math="0" shadow="0">
      <root>
        <mxCell id="WIyWlLk6GJQsqaUBKTNV-0" />
        <mxCell id="WIyWlLk6GJQsqaUBKTNV-1" parent="WIyWlLk6GJQsqaUBKTNV-0" />
        <mxCell id="6N3H0obR8PiytGN7zuTK-1" style="edgeStyle=orthogonalEdgeStyle;rounded=0;orthogonalLoop=1;jettySize=auto;html=1;" edge="1" parent="WIyWlLk6GJQsqaUBKTNV-1" source="6N3H0obR8PiytGN7zuTK-0" target="6N3H0obR8PiytGN7zuTK-2">
          <mxGeometry relative="1" as="geometry">
            <mxPoint x="100" y="180" as="targetPoint" />
          </mxGeometry>
        </mxCell>
        <mxCell id="6N3H0obR8PiytGN7zuTK-0" value="Start" style="ellipse;whiteSpace=wrap;html=1;aspect=fixed;" vertex="1" parent="WIyWlLk6GJQsqaUBKTNV-1">
          <mxGeometry x="50" y="20" width="100" height="100" as="geometry" />
        </mxCell>
        <mxCell id="6N3H0obR8PiytGN7zuTK-3" style="edgeStyle=orthogonalEdgeStyle;rounded=0;orthogonalLoop=1;jettySize=auto;html=1;" edge="1" parent="WIyWlLk6GJQsqaUBKTNV-1" source="6N3H0obR8PiytGN7zuTK-2">
          <mxGeometry relative="1" as="geometry">
            <mxPoint x="100" y="250" as="targetPoint" />
          </mxGeometry>
        </mxCell>
        <mxCell id="6N3H0obR8PiytGN7zuTK-2" value="Display &quot;Please enter 3 numbers to average them.&quot;" style="strokeWidth=2;html=1;shape=mxgraph.flowchart.display;whiteSpace=wrap;" vertex="1" parent="WIyWlLk6GJQsqaUBKTNV-1">
          <mxGeometry x="45" y="150" width="110" height="60" as="geometry" />
        </mxCell>
        <mxCell id="6N3H0obR8PiytGN7zuTK-6" style="edgeStyle=orthogonalEdgeStyle;rounded=0;orthogonalLoop=1;jettySize=auto;html=1;" edge="1" parent="WIyWlLk6GJQsqaUBKTNV-1" source="6N3H0obR8PiytGN7zuTK-5">
          <mxGeometry relative="1" as="geometry">
            <mxPoint x="95" y="340" as="targetPoint" />
          </mxGeometry>
        </mxCell>
        <mxCell id="6N3H0obR8PiytGN7zuTK-5" value="Prompt for integer 1" style="strokeWidth=2;html=1;shape=mxgraph.flowchart.display;whiteSpace=wrap;" vertex="1" parent="WIyWlLk6GJQsqaUBKTNV-1">
          <mxGeometry x="45" y="250" width="125" height="60" as="geometry" />
        </mxCell>
        <mxCell id="6N3H0obR8PiytGN7zuTK-13" style="edgeStyle=orthogonalEdgeStyle;rounded=0;orthogonalLoop=1;jettySize=auto;html=1;" edge="1" parent="WIyWlLk6GJQsqaUBKTNV-1" source="6N3H0obR8PiytGN7zuTK-8" target="6N3H0obR8PiytGN7zuTK-12">
          <mxGeometry relative="1" as="geometry" />
        </mxCell>
        <mxCell id="6N3H0obR8PiytGN7zuTK-8" value="Store in number1" style="shape=parallelogram;html=1;strokeWidth=2;perimeter=parallelogramPerimeter;whiteSpace=wrap;rounded=1;arcSize=12;size=0.23;" vertex="1" parent="WIyWlLk6GJQsqaUBKTNV-1">
          <mxGeometry x="40" y="340" width="130" height="60" as="geometry" />
        </mxCell>
        <mxCell id="6N3H0obR8PiytGN7zuTK-9" value="Store in number1" style="shape=parallelogram;html=1;strokeWidth=2;perimeter=parallelogramPerimeter;whiteSpace=wrap;rounded=1;arcSize=12;size=0.23;" vertex="1" parent="WIyWlLk6GJQsqaUBKTNV-1">
          <mxGeometry x="30" y="525" width="130" height="60" as="geometry" />
        </mxCell>
        <mxCell id="6N3H0obR8PiytGN7zuTK-17" style="edgeStyle=orthogonalEdgeStyle;rounded=0;orthogonalLoop=1;jettySize=auto;html=1;" edge="1" parent="WIyWlLk6GJQsqaUBKTNV-1" source="6N3H0obR8PiytGN7zuTK-10">
          <mxGeometry relative="1" as="geometry">
            <mxPoint x="240" y="740" as="targetPoint" />
          </mxGeometry>
        </mxCell>
        <mxCell id="6N3H0obR8PiytGN7zuTK-10" value="Store in number3" style="shape=parallelogram;html=1;strokeWidth=2;perimeter=parallelogramPerimeter;whiteSpace=wrap;rounded=1;arcSize=12;size=0.23;" vertex="1" parent="WIyWlLk6GJQsqaUBKTNV-1">
          <mxGeometry x="30" y="710" width="130" height="60" as="geometry" />
        </mxCell>
        <mxCell id="6N3H0obR8PiytGN7zuTK-11" value="Prompt for integer 3" style="strokeWidth=2;html=1;shape=mxgraph.flowchart.display;whiteSpace=wrap;" vertex="1" parent="WIyWlLk6GJQsqaUBKTNV-1">
          <mxGeometry x="30" y="610" width="120" height="60" as="geometry" />
        </mxCell>
        <mxCell id="6N3H0obR8PiytGN7zuTK-14" style="edgeStyle=orthogonalEdgeStyle;rounded=0;orthogonalLoop=1;jettySize=auto;html=1;entryX=0.5;entryY=0;entryDx=0;entryDy=0;" edge="1" parent="WIyWlLk6GJQsqaUBKTNV-1" source="6N3H0obR8PiytGN7zuTK-12" target="6N3H0obR8PiytGN7zuTK-9">
          <mxGeometry relative="1" as="geometry" />
        </mxCell>
        <mxCell id="6N3H0obR8PiytGN7zuTK-12" value="Prompt for integer 2" style="strokeWidth=2;html=1;shape=mxgraph.flowchart.display;whiteSpace=wrap;" vertex="1" parent="WIyWlLk6GJQsqaUBKTNV-1">
          <mxGeometry x="45" y="430" width="115" height="60" as="geometry" />
        </mxCell>
        <mxCell id="6N3H0obR8PiytGN7zuTK-15" style="edgeStyle=orthogonalEdgeStyle;rounded=0;orthogonalLoop=1;jettySize=auto;html=1;entryX=0.65;entryY=0.033;entryDx=0;entryDy=0;entryPerimeter=0;" edge="1" parent="WIyWlLk6GJQsqaUBKTNV-1" source="6N3H0obR8PiytGN7zuTK-9" target="6N3H0obR8PiytGN7zuTK-11">
          <mxGeometry relative="1" as="geometry" />
        </mxCell>
        <mxCell id="6N3H0obR8PiytGN7zuTK-16" style="edgeStyle=orthogonalEdgeStyle;rounded=0;orthogonalLoop=1;jettySize=auto;html=1;entryX=0.377;entryY=-0.033;entryDx=0;entryDy=0;entryPerimeter=0;" edge="1" parent="WIyWlLk6GJQsqaUBKTNV-1" source="6N3H0obR8PiytGN7zuTK-11" target="6N3H0obR8PiytGN7zuTK-10">
          <mxGeometry relative="1" as="geometry" />
        </mxCell>
        <mxCell id="6N3H0obR8PiytGN7zuTK-19" style="edgeStyle=orthogonalEdgeStyle;rounded=0;orthogonalLoop=1;jettySize=auto;html=1;" edge="1" parent="WIyWlLk6GJQsqaUBKTNV-1" source="6N3H0obR8PiytGN7zuTK-18" target="6N3H0obR8PiytGN7zuTK-20">
          <mxGeometry relative="1" as="geometry">
            <mxPoint x="390" y="740" as="targetPoint" />
          </mxGeometry>
        </mxCell>
        <mxCell id="6N3H0obR8PiytGN7zuTK-18" value="Add up all 3 numbers and store in sum" style="rounded=1;whiteSpace=wrap;html=1;absoluteArcSize=1;arcSize=14;strokeWidth=2;" vertex="1" parent="WIyWlLk6GJQsqaUBKTNV-1">
          <mxGeometry x="240" y="690" width="100" height="100" as="geometry" />
        </mxCell>
        <mxCell id="6N3H0obR8PiytGN7zuTK-20" value="average=sum/3" style="rounded=1;whiteSpace=wrap;html=1;absoluteArcSize=1;arcSize=14;strokeWidth=2;" vertex="1" parent="WIyWlLk6GJQsqaUBKTNV-1">
          <mxGeometry x="380" y="690" width="100" height="100" as="geometry" />
        </mxCell>
        <mxCell id="6N3H0obR8PiytGN7zuTK-24" style="edgeStyle=orthogonalEdgeStyle;rounded=0;orthogonalLoop=1;jettySize=auto;html=1;" edge="1" parent="WIyWlLk6GJQsqaUBKTNV-1" source="6N3H0obR8PiytGN7zuTK-21" target="6N3H0obR8PiytGN7zuTK-23">
          <mxGeometry relative="1" as="geometry" />
        </mxCell>
        <mxCell id="6N3H0obR8PiytGN7zuTK-21" value="Display results" style="strokeWidth=2;html=1;shape=mxgraph.flowchart.display;whiteSpace=wrap;" vertex="1" parent="WIyWlLk6GJQsqaUBKTNV-1">
          <mxGeometry x="520" y="710" width="100" height="60" as="geometry" />
        </mxCell>
        <mxCell id="6N3H0obR8PiytGN7zuTK-22" style="edgeStyle=orthogonalEdgeStyle;rounded=0;orthogonalLoop=1;jettySize=auto;html=1;entryX=0;entryY=0.5;entryDx=0;entryDy=0;entryPerimeter=0;" edge="1" parent="WIyWlLk6GJQsqaUBKTNV-1" source="6N3H0obR8PiytGN7zuTK-20" target="6N3H0obR8PiytGN7zuTK-21">
          <mxGeometry relative="1" as="geometry" />
        </mxCell>
        <mxCell id="6N3H0obR8PiytGN7zuTK-23" value="End" style="strokeWidth=2;html=1;shape=mxgraph.flowchart.terminator;whiteSpace=wrap;" vertex="1" parent="WIyWlLk6GJQsqaUBKTNV-1">
          <mxGeometry x="670" y="710" width="100" height="60" as="geometry" />
        </mxCell>
      </root>
    </mxGraphModel>
  </diagram>
  <diagram id="ZWeulwwaebXMOy-5i863" name="Page-2">
    <mxGraphModel dx="1434" dy="738" grid="1" gridSize="10" guides="1" tooltips="1" connect="1" arrows="1" fold="1" page="1" pageScale="1" pageWidth="850" pageHeight="1100" math="0" shadow="0">
      <root>
        <mxCell id="0" />
        <mxCell id="1" parent="0" />
        <mxCell id="gP30Mj-QJI33JTquKN06-3" style="edgeStyle=orthogonalEdgeStyle;rounded=0;orthogonalLoop=1;jettySize=auto;html=1;" edge="1" parent="1" source="gP30Mj-QJI33JTquKN06-2" target="gP30Mj-QJI33JTquKN06-4">
          <mxGeometry relative="1" as="geometry">
            <mxPoint x="90" y="180" as="targetPoint" />
          </mxGeometry>
        </mxCell>
        <mxCell id="gP30Mj-QJI33JTquKN06-2" value="Start" style="strokeWidth=2;html=1;shape=mxgraph.flowchart.start_2;whiteSpace=wrap;" vertex="1" parent="1">
          <mxGeometry x="40" y="30" width="100" height="100" as="geometry" />
        </mxCell>
        <mxCell id="gP30Mj-QJI33JTquKN06-4" value="Display Welcome" style="strokeWidth=2;html=1;shape=mxgraph.flowchart.display;whiteSpace=wrap;" vertex="1" parent="1">
          <mxGeometry x="40" y="150" width="100" height="60" as="geometry" />
        </mxCell>
        <mxCell id="gP30Mj-QJI33JTquKN06-9" style="edgeStyle=orthogonalEdgeStyle;rounded=0;orthogonalLoop=1;jettySize=auto;html=1;entryX=0.5;entryY=0;entryDx=0;entryDy=0;" edge="1" parent="1" source="gP30Mj-QJI33JTquKN06-5" target="gP30Mj-QJI33JTquKN06-7">
          <mxGeometry relative="1" as="geometry" />
        </mxCell>
        <mxCell id="gP30Mj-QJI33JTquKN06-5" value="prompt for numbers" style="strokeWidth=2;html=1;shape=mxgraph.flowchart.display;whiteSpace=wrap;" vertex="1" parent="1">
          <mxGeometry x="40" y="240" width="100" height="60" as="geometry" />
        </mxCell>
        <mxCell id="gP30Mj-QJI33JTquKN06-6" style="edgeStyle=orthogonalEdgeStyle;rounded=0;orthogonalLoop=1;jettySize=auto;html=1;entryX=0.5;entryY=0;entryDx=0;entryDy=0;entryPerimeter=0;" edge="1" parent="1" source="gP30Mj-QJI33JTquKN06-4" target="gP30Mj-QJI33JTquKN06-5">
          <mxGeometry relative="1" as="geometry" />
        </mxCell>
        <mxCell id="gP30Mj-QJI33JTquKN06-10" style="edgeStyle=orthogonalEdgeStyle;rounded=0;orthogonalLoop=1;jettySize=auto;html=1;" edge="1" parent="1" source="gP30Mj-QJI33JTquKN06-7">
          <mxGeometry relative="1" as="geometry">
            <mxPoint x="90" y="470" as="targetPoint" />
          </mxGeometry>
        </mxCell>
        <mxCell id="gP30Mj-QJI33JTquKN06-7" value="Store integer 1 in number 1" style="rounded=1;whiteSpace=wrap;html=1;absoluteArcSize=1;arcSize=14;strokeWidth=2;" vertex="1" parent="1">
          <mxGeometry x="40" y="330" width="100" height="100" as="geometry" />
        </mxCell>
        <mxCell id="gP30Mj-QJI33JTquKN06-12" style="edgeStyle=orthogonalEdgeStyle;rounded=0;orthogonalLoop=1;jettySize=auto;html=1;entryX=0.5;entryY=0;entryDx=0;entryDy=0;" edge="1" parent="1" source="gP30Mj-QJI33JTquKN06-8" target="gP30Mj-QJI33JTquKN06-11">
          <mxGeometry relative="1" as="geometry" />
        </mxCell>
        <mxCell id="gP30Mj-QJI33JTquKN06-8" value="Store integer 2 in number 2" style="rounded=1;whiteSpace=wrap;html=1;absoluteArcSize=1;arcSize=14;strokeWidth=2;" vertex="1" parent="1">
          <mxGeometry x="40" y="470" width="100" height="100" as="geometry" />
        </mxCell>
        <mxCell id="gP30Mj-QJI33JTquKN06-11" value="sum= number+number 2" style="rounded=1;whiteSpace=wrap;html=1;absoluteArcSize=1;arcSize=14;strokeWidth=2;" vertex="1" parent="1">
          <mxGeometry x="50" y="620" width="100" height="100" as="geometry" />
        </mxCell>
        <mxCell id="gP30Mj-QJI33JTquKN06-13" value="Display Result" style="strokeWidth=2;html=1;shape=mxgraph.flowchart.display;whiteSpace=wrap;" vertex="1" parent="1">
          <mxGeometry x="230" y="640" width="100" height="60" as="geometry" />
        </mxCell>
        <mxCell id="gP30Mj-QJI33JTquKN06-14" style="edgeStyle=orthogonalEdgeStyle;rounded=0;orthogonalLoop=1;jettySize=auto;html=1;entryX=0;entryY=0.5;entryDx=0;entryDy=0;entryPerimeter=0;" edge="1" parent="1" source="gP30Mj-QJI33JTquKN06-11" target="gP30Mj-QJI33JTquKN06-13">
          <mxGeometry relative="1" as="geometry" />
        </mxCell>
      </root>
    </mxGraphModel>
  </diagram>
</mxfile>
